<?xml version="1.0" encoding="UTF-8" standalone="no"?>
<!-- Created with Inkscape (http://www.inkscape.org/) -->

<!-- By Farriven -->

<svg
   xmlns:dc="http://purl.org/dc/elements/1.1/"
   xmlns:cc="http://creativecommons.org/ns#"
   xmlns:rdf="http://www.w3.org/1999/02/22-rdf-syntax-ns#"
   xmlns:svg="http://www.w3.org/2000/svg"
   xmlns="http://www.w3.org/2000/svg"
   xmlns:sodipodi="http://sodipodi.sourceforge.net/DTD/sodipodi-0.dtd"
   xmlns:inkscape="http://www.inkscape.org/namespaces/inkscape"
   width="32"
   height="32"
   viewBox="0 0 8.4666665 8.4666669"
   version="1.1"
   id="svg832"
   inkscape:version="0.92.4 (5da689c313, 2019-01-14)"
   sodipodi:docname="haiku_logo_normal.svg">
  <defs
     id="defs826">
    <marker
       inkscape:stockid="Arrow2Lend"
       orient="auto"
       refY="0.0"
       refX="0.0"
       id="Arrow2Lend"
       style="overflow:visible;"
       inkscape:isstock="true">
      <path
         id="path897"
         style="fill-rule:evenodd;stroke-width:0.62500000;stroke-linejoin:round;"
         d="M 8.7185878,4.0337352 L -2.2072895,0.016013256 L 8.7185884,-4.0017078 C 6.9730900,-1.6296469 6.9831476,1.6157441 8.7185878,4.0337352 z "
         transform="scale(1.1) rotate(180) translate(1,0)" />
    </marker>
    <marker
       inkscape:stockid="Tail"
       orient="auto"
       refY="0.0"
       refX="0.0"
       id="Tail"
       style="overflow:visible"
       inkscape:isstock="true">
      <g
         id="g924"
         transform="scale(-1.2)">
        <path
           id="path912"
           d="M -3.8048674,-3.9585227 L 0.54352094,0"
           style="fill:none;fill-rule:evenodd;stroke:#000000;stroke-width:0.8;stroke-linecap:round" />
        <path
           id="path914"
           d="M -1.2866832,-3.9585227 L 3.0617053,0"
           style="fill:none;fill-rule:evenodd;stroke:#000000;stroke-width:0.8;stroke-linecap:round" />
        <path
           id="path916"
           d="M 1.3053582,-3.9585227 L 5.6537466,0"
           style="fill:none;fill-rule:evenodd;stroke:#000000;stroke-width:0.8;stroke-linecap:round" />
        <path
           id="path918"
           d="M -3.8048674,4.1775838 L 0.54352094,0.21974226"
           style="fill:none;fill-rule:evenodd;stroke:#000000;stroke-width:0.8;stroke-linecap:round" />
        <path
           id="path920"
           d="M -1.2866832,4.1775838 L 3.0617053,0.21974226"
           style="fill:none;fill-rule:evenodd;stroke:#000000;stroke-width:0.8;stroke-linecap:round" />
        <path
           id="path922"
           d="M 1.3053582,4.1775838 L 5.6537466,0.21974226"
           style="fill:none;fill-rule:evenodd;stroke:#000000;stroke-width:0.8;stroke-linecap:round" />
      </g>
    </marker>
    <marker
       inkscape:stockid="Arrow1Mstart"
       orient="auto"
       refY="0.0"
       refX="0.0"
       id="Arrow1Mstart"
       style="overflow:visible"
       inkscape:isstock="true">
      <path
         id="path882"
         d="M 0.0,0.0 L 5.0,-5.0 L -12.5,0.0 L 5.0,5.0 L 0.0,0.0 z "
         style="fill-rule:evenodd;stroke:#000000;stroke-width:1.0pt"
         transform="scale(0.4) translate(10,0)" />
    </marker>
    <marker
       inkscape:stockid="Arrow1Lend"
       orient="auto"
       refY="0.0"
       refX="0.0"
       id="Arrow1Lend"
       style="overflow:visible;"
       inkscape:isstock="true">
      <path
         id="path879"
         d="M 0.0,0.0 L 5.0,-5.0 L -12.5,0.0 L 5.0,5.0 L 0.0,0.0 z "
         style="fill-rule:evenodd;stroke:#000000;stroke-width:1.0pt;"
         transform="scale(0.8) rotate(180) translate(12.5,0)" />
    </marker>
  </defs>
  <sodipodi:namedview
     id="base"
     pagecolor="#ffffff"
     bordercolor="#666666"
     borderopacity="1.0"
     inkscape:pageopacity="0.0"
     inkscape:pageshadow="2"
     inkscape:zoom="45.254834"
     inkscape:cx="14.664438"
     inkscape:cy="14.083482"
     inkscape:document-units="px"
     inkscape:current-layer="layer1"
     showgrid="false"
     units="px"
     showguides="true"
     inkscape:guide-bbox="true"
     inkscape:window-width="1920"
     inkscape:window-height="1001"
     inkscape:window-x="-9"
     inkscape:window-y="-9"
     inkscape:window-maximized="1"
     inkscape:snap-object-midpoints="true"
     inkscape:snap-center="true">
    <sodipodi:guide
       position="4.2345144,7.6835475"
       orientation="1,0"
       id="guide1379"
       inkscape:locked="false" />
    <sodipodi:guide
       position="0.89368249,4.2345516"
       orientation="0,1"
       id="guide1381"
       inkscape:locked="false" />
    <sodipodi:guide
       position="8.0418864,5.8218669"
       orientation="0,1"
       id="guide866"
       inkscape:locked="false" />
    <sodipodi:guide
       position="6.3644694,2.6468669"
       orientation="0,1"
       id="guide868"
       inkscape:locked="false" />
    <inkscape:grid
       type="xygrid"
       id="grid944" />
  </sodipodi:namedview>
  <metadata
     id="metadata829">
    <rdf:RDF>
      <cc:Work
         rdf:about="">
        <dc:format>image/svg+xml</dc:format>
        <dc:type
           rdf:resource="http://purl.org/dc/dcmitype/StillImage" />
        <dc:title />
      </cc:Work>
    </rdf:RDF>
  </metadata>
  <g
     inkscape:groupmode="layer"
     id="layer2"
     inkscape:label="connects">
    <g
       aria-label="Connects"
       transform="matrix(0.99490014,0,0,1.005126,0.1252049,2.0244981)"
       style="font-style:normal;font-variant:normal;font-weight:bold;font-stretch:normal;font-size:1.62170863px;line-height:0;font-family:sans-serif;-inkscape-font-specification:'sans-serif Bold';letter-spacing:0px;word-spacing:0px;fill:#353330;fill-opacity:1;stroke:none;stroke-width:0.5291667;stroke-miterlimit:4;stroke-dasharray:none;stroke-opacity:1"
       id="text824-2">
      <path
         d="M 1.4912201,0.77328477 Q 1.3843204,0.96332875 1.3843204,1.125658 q 0,0.1156101 0.052262,0.1654966 0.053054,0.049887 0.1757907,0.049887 h 0.4402685 q 0.1092753,0 0.1092753,0.074434 0,0.053846 -0.038801,0.083936 -0.038009,0.030882 -0.1076916,0.030882 h -0.459273 q -0.1148182,0 -0.1837092,-0.031674 -0.095814,-0.044344 -0.1504514,-0.13699 -0.054638,-0.091855 -0.054638,-0.2098403 0,-0.15836995 0.096606,-0.37850423 h -0.044344 -0.020588 q -0.088687,0 -0.088687,-0.0760176 0,-0.047511 0.036425,-0.0799768 0.036425,-0.0332577 0.088687,-0.0332577 h 0.02138 0.1148182 Q 1.4429173,0.46525515 1.5632785,0.35518802 1.7168974,0.21661428 1.8950636,0.21661428 q 0.1171938,0 0.1940032,0.0720583 0.076809,0.0720583 0.076809,0.18370918 0,0.15916184 -0.148076,0.24388978 -0.1005649,0.0570132 -0.3199073,0.0570132 z M 1.6092058,0.58403264 h 0.1536189 q 0.1971706,0 0.1971706,-0.10531604 0,-0.0332577 -0.026131,-0.0538458 -0.025339,-0.0213799 -0.064932,-0.0213799 -0.060972,0 -0.131447,0.0490947 -0.070475,0.0490947 -0.1282795,0.13144704 z"
         style="font-style:normal;font-variant:normal;font-weight:bold;font-stretch:normal;font-family:'Harlow Solid Italic';-inkscape-font-specification:'Harlow Solid Italic, Bold';fill:#353330;fill-opacity:1;stroke:none;stroke-width:0.5291667;stroke-miterlimit:4;stroke-dasharray:none;stroke-opacity:1"
         id="path1010"
         inkscape:connector-curvature="0" />
      <path
         d="m 2.3899698,0.69726718 q 0.1148182,0 0.1884603,0.0728502 0.074434,0.0728502 0.074434,0.18529288 0,0.0847279 -0.038801,0.16866404 -0.038801,0.083144 -0.1005649,0.1330308 -0.041176,0.032466 -0.08552,0.045135 -0.043552,0.011878 -0.1227367,0.011878 -0.1290716,0 -0.174207,-0.030882 -0.1061079,-0.07285 -0.1061079,-0.2153832 0,-0.15045143 0.1084834,-0.26051857 0.1084835,-0.11006714 0.2565598,-0.11006715 z m -0.019004,0.16866403 q -0.058597,0 -0.1068997,0.0578051 -0.048303,0.057805 -0.048303,0.12748779 0,0.091855 0.1029405,0.091855 0.060181,0 0.092646,-0.037217 0.053846,-0.060972 0.053846,-0.1393655 0,-0.0451354 -0.026131,-0.0728502 -0.026131,-0.0277148 -0.068099,-0.0277152 z"
         style="font-style:normal;font-variant:normal;font-weight:bold;font-stretch:normal;font-family:'Harlow Solid Italic';-inkscape-font-specification:'Harlow Solid Italic, Bold';fill:#353330;fill-opacity:1;stroke:none;stroke-width:0.5291667;stroke-miterlimit:4;stroke-dasharray:none;stroke-opacity:1"
         id="path1012"
         inkscape:connector-curvature="0" />
      <path
         d="m 3.2815928,1.141495 h 0.095022 c 0.067043,0 0.1254968,0.023492 0.1254968,0.070475 0,0.032202 -0.017072,0.074758 -0.040827,0.092706 -0.023755,0.017949 -0.051291,0.00944 -0.092995,0.00944 H 3.1778605 c -0.032202,0 -0.059389,-0.00977 -0.081561,-0.029299 -0.021644,-0.019532 -0.032466,-0.044079 -0.032466,-0.073642 0,-0.017949 0.00739,-0.044872 0.022172,-0.080769 l 0.069683,-0.1726233 c 0.00739,-0.0179486 0.01135,-0.0324658 0.011878,-0.0435517 5.279e-4,-0.0126696 -0.00475,-0.0234915 -0.015837,-0.0324658 -0.010558,-0.008974 -0.024283,-0.0134615 -0.041176,-0.0134615 -0.054374,0 -0.09819,0.0409122 -0.1314471,0.12273674 L 2.8617749,1.2792907 c -0.027979,0.069683 -0.069683,0.1045242 -0.1251123,0.1045242 -0.0227,0 -0.043007,-0.00275 -0.058844,-0.016475 -0.015837,-0.013725 -0.023756,-0.028561 -0.023756,-0.048621 0,-0.014781 0.00422,-0.032466 0.01267,-0.053054 l 0.00871,-0.02138 0.1848855,-0.45912148 c 0.020588,-0.0512063 0.055693,-0.0768094 0.105316,-0.0768094 0.040649,0 0.069683,0.0179486 0.087103,0.0538458 0.056485,-0.0432878 0.1103311,-0.0649317 0.1615374,-0.0649317 0.049623,0 0.090535,0.0142533 0.1227367,0.0427599 0.032202,0.0285066 0.048303,0.0646677 0.048303,0.10848343 0,0.0242834 -0.00581,0.0509423 -0.017421,0.0799768 z"
         style="font-style:normal;font-variant:normal;font-weight:bold;font-stretch:normal;font-family:'Harlow Solid Italic';-inkscape-font-specification:'Harlow Solid Italic, Bold';fill:#353330;fill-opacity:1;stroke:none;stroke-width:0.5291667;stroke-miterlimit:4;stroke-dasharray:none;stroke-opacity:1"
         id="path1014"
         inkscape:connector-curvature="0"
         sodipodi:nodetypes="cssssscsccccsccscscccscscscc" />
      <path
         d="m 4.092447,1.141495 h 0.095022 c 0.067043,0 0.100565,0.023492 0.100565,0.070475 0,0.032202 -0.011878,0.057277 -0.035633,0.075226 C 4.228646,1.305145 4.195916,1.314119 4.154212,1.314119 H 3.9887147 c -0.032202,0 -0.059389,-0.00977 -0.081561,-0.029299 -0.021644,-0.019532 -0.032466,-0.044079 -0.032466,-0.073642 0,-0.017949 0.00739,-0.044872 0.022172,-0.080769 l 0.069683,-0.1726233 c 0.00739,-0.0179486 0.01135,-0.0324658 0.011878,-0.0435517 5.279e-4,-0.0126696 -0.00475,-0.0234915 -0.015837,-0.0324658 -0.010558,-0.008974 -0.024283,-0.0134615 -0.041176,-0.0134615 -0.054374,0 -0.09819,0.0409122 -0.1314471,0.12273674 l -0.033204,0.0871273 c -0.027979,0.069683 -0.069683,0.1045242 -0.1251123,0.1045242 -0.0227,0 -0.041968,-0.00686 -0.057805,-0.020588 -0.015837,-0.013725 -0.023756,-0.030618 -0.023756,-0.050678 0,-0.014781 0.00422,-0.032466 0.01267,-0.053054 l 0.00871,-0.02138 0.09972,-0.25183198 c 0.020588,-0.0512063 0.055693,-0.0768094 0.105316,-0.0768094 0.040649,0 0.069683,0.0179486 0.087103,0.0538458 0.056485,-0.0432878 0.1103311,-0.0649317 0.1615374,-0.0649317 0.049623,0 0.090535,0.0142533 0.1227367,0.0427599 0.032202,0.0285066 0.048303,0.0646677 0.048303,0.10848343 0,0.0242834 -0.00581,0.0509423 -0.017421,0.0799768 z"
         style="font-style:normal;font-variant:normal;font-weight:bold;font-stretch:normal;font-family:'Harlow Solid Italic';-inkscape-font-specification:'Harlow Solid Italic, Bold';fill:#353330;fill-opacity:1;stroke:none;stroke-width:0.5291667;stroke-miterlimit:4;stroke-dasharray:none;stroke-opacity:1"
         id="path1016"
         inkscape:connector-curvature="0"
         sodipodi:nodetypes="cssssscsccccsccscscccscscscc" />
      <path
         d="m 4.5065847,1.0821062 q 0,0.059389 0.089479,0.059389 h 0.2351794 q 0.099773,0 0.099773,0.070475 0,0.048303 -0.035633,0.075226 -0.034841,0.026923 -0.098189,0.026923 h -0.224094 q -0.1251123,0 -0.1908359,-0.061764 -0.064932,-0.061764 -0.064932,-0.1805418 0,-0.15282704 0.1029405,-0.26368603 0.1037324,-0.11085899 0.2462654,-0.11085899 0.1037323,0 0.1662884,0.0546376 0.063348,0.0538458 0.063348,0.14253299 0,0.10689973 -0.087103,0.15837003 -0.048303,0.029298 -0.1441166,0.029298 z m 0.038009,-0.14411664 h 0.087103 q 0.084728,0 0.082352,-0.037217 -0.00238,-0.041968 -0.054638,-0.041968 -0.07285,0 -0.1148182,0.079185 z"
         style="font-style:normal;font-variant:normal;font-weight:bold;font-stretch:normal;font-family:'Harlow Solid Italic';-inkscape-font-specification:'Harlow Solid Italic, Bold';fill:#353330;fill-opacity:1;stroke:none;stroke-width:0.5291667;stroke-miterlimit:4;stroke-dasharray:none;stroke-opacity:1"
         id="path1018"
         inkscape:connector-curvature="0" />
      <path
         d="M 5.4164201,1.3141183 H 5.1867836 q -0.098981,0 -0.1615374,-0.069683 -0.061764,-0.069683 -0.061764,-0.1805418 0,-0.14807594 0.1021487,-0.25735123 0.1021486,-0.10927529 0.2399305,-0.10927529 0.093438,0 0.1520352,0.0522621 0.058597,0.0522621 0.058597,0.13619819 0,0.0585969 -0.029299,0.0966057 -0.029298,0.037217 -0.075226,0.037217 -0.07285,0 -0.07285,-0.0680991 0,-0.0102941 0,-0.0174207 7.918e-4,-0.00871 7.918e-4,-0.0166289 0,-0.0554295 -0.054638,-0.0554295 -0.05147,0 -0.09423,0.0546376 -0.041968,0.0546376 -0.041968,0.12194493 0,0.056221 0.03405,0.079977 0.034841,0.022964 0.1171937,0.022964 h 0.1496597 q 0.1005649,0 0.1005649,0.070475 0,0.047511 -0.036425,0.075226 -0.035633,0.026923 -0.097398,0.026923 z"
         style="font-style:normal;font-variant:normal;font-weight:bold;font-stretch:normal;font-family:'Harlow Solid Italic';-inkscape-font-specification:'Harlow Solid Italic, Bold';fill:#353330;fill-opacity:1;stroke:none;stroke-width:0.5291667;stroke-miterlimit:4;stroke-dasharray:none;stroke-opacity:1"
         id="path1020"
         inkscape:connector-curvature="0" />
      <path
         d="m 5.9762579,0.70835308 h 0.024547 q 0.1005649,0 0.1005649,0.0704746 0,0.0483029 -0.035633,0.0752257 -0.035633,0.0269229 -0.098189,0.0269229 H 5.9097425 L 5.8036346,1.141495 h 0.088687 q 0.100565,0 0.100565,0.070475 0,0.048303 -0.035633,0.075226 -0.034841,0.026923 -0.098189,0.026923 H 5.717323 q -0.060181,0 -0.095814,-0.027715 -0.034841,-0.027715 -0.034841,-0.075226 0,-0.029298 0.014253,-0.064932 L 5.615966,1.111405 5.709404,0.88097666 H 5.697526 q -0.088687,0 -0.088687,-0.0688909 0,-0.0490947 0.034841,-0.0760176 0.035633,-0.0277148 0.098981,-0.0277148 h 0.036425 l 0.041968,-0.10373234 0.00871,-0.02138 q 0.037217,-0.0878953 0.1171938,-0.0878953 0.032466,0 0.055429,0.0221718 0.023756,0.0213799 0.023756,0.0522621 0,0.0300903 -0.020588,0.0760176 z"
         style="font-style:normal;font-variant:normal;font-weight:bold;font-stretch:normal;font-family:'Harlow Solid Italic';-inkscape-font-specification:'Harlow Solid Italic, Bold';fill:#353330;fill-opacity:1;stroke:none;stroke-width:0.5291667;stroke-miterlimit:4;stroke-dasharray:none;stroke-opacity:1"
         id="path1022"
         inkscape:connector-curvature="0" />
      <path
         d="m 6.3317986,0.92452811 -0.015045,0.0364251 q -0.034841,0.0783931 -0.098981,0.0783931 -0.032466,0 -0.058597,-0.022172 -0.025339,-0.0229636 -0.025339,-0.0522621 0,-0.0277147 0.022964,-0.073642 l 0.105316,-0.21379948 q 0.038801,-0.0768094 0.096606,-0.0768094 0.030882,0 0.053054,0.0205881 0.022172,0.0197962 0.022172,0.047511 0,0.007127 -0.00475,0.0308821 -0.00317,0.0174207 -0.00317,0.0308822 0,0.0498865 0.037217,0.10214864 l 0.045135,0.0625561 q 0.068891,0.0958138 0.068891,0.18529283 0,0.099773 -0.074434,0.1670804 -0.074434,0.066515 -0.1852929,0.066515 h -0.165496 q -0.100565,0 -0.100565,-0.069683 0,-0.048303 0.035633,-0.075226 0.035633,-0.027715 0.098189,-0.027715 h 0.091855 q 0.1100671,0 0.1100671,-0.079977 0,-0.029298 -0.020588,-0.0688909 z"
         style="font-style:normal;font-variant:normal;font-weight:bold;font-stretch:normal;font-family:'Harlow Solid Italic';-inkscape-font-specification:'Harlow Solid Italic, Bold';fill:#353330;fill-opacity:1;stroke:none;stroke-width:0.5291667;stroke-miterlimit:4;stroke-dasharray:none;stroke-opacity:1"
         id="path1024"
         inkscape:connector-curvature="0" />
    </g>
  </g>
  <g
     inkscape:groupmode="layer"
     id="layer3"
     inkscape:label="us">
    <g
       aria-label="Us"
       transform="matrix(1.1041596,0,0,1.1155086,-0.49153383,1.6809517)"
       style="font-style:normal;font-variant:normal;font-weight:bold;font-stretch:normal;font-size:1.39530277px;line-height:0;font-family:sans-serif;-inkscape-font-specification:'sans-serif Bold';letter-spacing:0px;word-spacing:0px;fill:#353330;fill-opacity:1;stroke:none;stroke-width:0.09513429"
       id="text824-2-9">
      <path
         d="M 5.57676,3.0870709 5.3594253,3.6218915 Q 5.30424,3.756789 5.2279343,3.8187873 5.15231,3.8801043 5.0405768,3.8801043 q -0.1083267,0 -0.1825885,-0.064724 -0.07358,-0.065405 -0.07358,-0.1601055 0,-0.070174 0.044285,-0.179182 l 0.072899,-0.1798632 q 0.041559,-0.1021951 0.041559,-0.138304 0,-0.034065 -0.028615,-0.057229 -0.028615,-0.023846 -0.069493,-0.023846 -0.066767,0 -0.1219527,0.059273 -0.055185,0.058592 -0.055185,0.129447 0,0.042241 0.019076,0.066086 0.019076,0.023845 0.066767,0.042241 0.050416,0.019758 0.050416,0.064042 0,0.038153 -0.029296,0.064042 -0.029296,0.025208 -0.072899,0.025208 -0.086525,0 -0.1478421,-0.071537 -0.060636,-0.072218 -0.060636,-0.1744128 0,-0.1485235 0.111052,-0.2595754 0.1117332,-0.1110519 0.2609379,-0.1110519 0.1130959,0 0.1873576,0.066767 0.074943,0.066086 0.074943,0.1669185 0,0.064042 -0.036109,0.15193 L 4.9881167,3.5517176 q -0.022483,0.055185 -0.022483,0.087888 0,0.034065 0.022483,0.055867 0.023164,0.02112 0.059954,0.02112 0.04701,0 0.077668,-0.032021 0.03134,-0.032021 0.064723,-0.1151398 L 5.4146106,3.0182596 q 0.023846,-0.059954 0.049054,-0.076987 0.025208,-0.017033 0.087888,-0.017033 h 0.1471609 q 0.094019,0 0.094019,0.064042 0,0.047691 -0.032702,0.07358 -0.032702,0.025208 -0.092657,0.025208 z"
         style="font-style:normal;font-variant:normal;font-weight:bold;font-stretch:normal;font-family:'Harlow Solid Italic';-inkscape-font-specification:'Harlow Solid Italic, Bold';fill:#353330;fill-opacity:1;stroke-width:0.09513429"
         id="path1005"
         inkscape:connector-curvature="0" />
      <path
         d="m 5.817259,3.5190152 -0.012945,0.03134 q -0.029977,0.067449 -0.085163,0.067449 -0.027933,0 -0.050416,-0.019076 -0.021802,-0.019758 -0.021802,-0.044966 0,-0.023845 0.019758,-0.063361 l 0.090613,-0.183951 q 0.033384,-0.066086 0.083119,-0.066086 0.026571,0 0.045647,0.017714 0.019076,0.017033 0.019076,0.040878 0,0.00613 -0.00409,0.026571 -0.00273,0.014989 -0.00273,0.026571 0,0.042922 0.032021,0.087888 l 0.038834,0.053823 q 0.059273,0.082437 0.059273,0.1594243 0,0.085844 -0.064042,0.1437543 -0.064042,0.057229 -0.1594242,0.057229 H 5.6626039 q -0.086525,0 -0.086525,-0.059954 0,-0.041559 0.030659,-0.064723 0.030659,-0.023846 0.084481,-0.023846 h 0.079031 q 0.094701,0 0.094701,-0.068811 0,-0.025208 -0.017714,-0.059273 z"
         style="font-style:normal;font-variant:normal;font-weight:bold;font-stretch:normal;font-family:'Harlow Solid Italic';-inkscape-font-specification:'Harlow Solid Italic, Bold';fill:#353330;fill-opacity:1;stroke-width:0.09513429"
         id="path1007"
         inkscape:connector-curvature="0" />
    </g>
  </g>
  <g
     inkscape:groupmode="layer"
     id="layer1"
     inkscape:label="haiku">
    <g
       aria-label="俳句"
       style="font-style:normal;font-variant:normal;font-weight:bold;font-stretch:normal;font-size:3.17499995px;line-height:0;font-family:sans-serif;-inkscape-font-specification:'sans-serif Bold';letter-spacing:0px;word-spacing:0px;fill:#ff3330;fill-opacity:1;stroke:#353330;stroke-width:0.02645833;stroke-miterlimit:4;stroke-dasharray:none;stroke-opacity:1"
       id="text926"
       transform="translate(0.1252049,2.0244981)">
      <path
         d="m 3.4313148,2.4556638 c 0,0.3141927 -0.1653646,0.5457031 -0.4960937,0.6945312 L 2.8525388,3.0013669 C 3.0950735,2.8911239 3.2301212,2.7422958 3.257682,2.5548826 3.1186704,2.5951053 2.9787415,2.6332103 2.8398858,2.6725576 L 2.7946612,2.497005 3.2659502,2.3977862 V 2.207617 H 2.9186846 V 2.0505206 H 3.2659502 V 1.7776691 H 2.8773435 V 1.6205727 H 3.2659502 V 1.3218829 h 0.1570964 c 0.00321,0.124241 0.00827,0.3755829 0.00827,0.567407 z M 2.2902992,2.1580076 C 2.4534159,1.9715139 2.6447997,1.2960448 2.6447997,1.2960448 l 0.1963702,0.00103 c -0.033936,0.1252589 -0.095995,0.3581171 -0.1415937,0.5095294 0.003,0.1912018 0.020671,0.7069354 0.020671,0.7069354 V 3.150195 H 2.5548825 L 2.5417278,2.0669711 c -0.049609,0.071658 -0.094332,0.1902552 -0.1604781,0.2564011 0,0 -0.2540672,0.021129 -0.09095,-0.1653646 z M 4.1589189,1.7776691 H 3.7372392 V 2.0505206 H 4.1093095 V 2.207617 H 3.7372392 V 2.497005 H 4.2085283 V 2.6541013 H 3.7372392 V 3.1419268 H 3.5718747 V 1.2650389 l 0.1585579,0.00146 c 0.00707,0.1179665 0.00593,0.2359983 0.00681,0.3540718 h 0.4216797 z"
         style="font-size:2.11666656px;fill:#ff3330;fill-opacity:1;stroke:#353330;stroke-width:0.02645833;stroke-miterlimit:4;stroke-dasharray:none;stroke-opacity:1"
         id="path1027"
         inkscape:connector-curvature="0"
         sodipodi:nodetypes="ccccccccccccccccccczcccccccczccccccccccccccccc" />
      <path
         d="m 5.6472001,2.9186846 h 0.1901692 c 0.07717,0 0.1267795,-0.044097 0.1488282,-0.1322916 0.033073,-0.1378038 0.060633,-0.4905816 0.082682,-1.0583333 H 4.9609371 C 4.8231333,1.9320094 4.6743052,2.0835936 4.5144527,2.1828123 L 4.4317705,2.0009113 C 4.6798174,1.8410588 4.8913463,1.616783 5.0126136,1.2640053 c 0.041389,0.039845 0.087228,0.051361 0.132291,0.056844 -0.019399,0.082121 -0.061937,0.1535464 -0.09302,0.2253097 H 6.259049 C 6.2259761,2.2682508 6.187391,2.7174911 6.1432938,2.89388 6.1102209,3.0316838 6.0220264,3.1005857 5.8787105,3.1005857 H 5.6472001 Z M 4.9857418,2.1249347 v 0.396875 h 0.4795573 v -0.396875 z m 0,0.5539713 V 2.8194659 H 4.8203772 V 1.9678383 H 5.6306636 V 2.7367836 H 5.4652991 V 2.678906 Z"
         style="font-size:2.11666656px;fill:#ff3330;fill-opacity:1;stroke:#353330;stroke-width:0.02645833;stroke-miterlimit:4;stroke-dasharray:none;stroke-opacity:1"
         id="path1029"
         inkscape:connector-curvature="0"
         sodipodi:nodetypes="csccccccccccscccccccccccccccc" />
    </g>
  </g>
</svg>
