<?xml version="1.0" encoding="UTF-8"?>
<!-- Author's instagram: @speedieowo  -->

<svg enable-background="new 0 0 300 200" version="1.1" viewBox="0 0 300 200" xml:space="preserve" xmlns="http://www.w3.org/2000/svg" xmlns:xlink="http://www.w3.org/1999/xlink">
<style type="text/css">
	.st0{display:none;}
	.st1{display:inline;fill:#CBBBA0;}
	.st2{fill:#10499A;}
	.st3{fill:#171E21;}
</style>
<g class="st0">
	
	<rect class="st1" x="25" y="50" width="250" height="100"/>
</g>

	
		
			<path class="st2" d="m130.96 72.16h0.84v8.52h-0.84v-8.52zm0.59 0h3.93v0.79h-3.93v-0.79zm0 3.97h3.45v0.79h-3.46v-0.79z"/>
			<path class="st2" d="m136.53 72.15h0.84v8.53h-0.84v-8.53zm0.52 4.14h2.24c0.28 0 0.53-0.06 0.74-0.18s0.37-0.28 0.49-0.5 0.17-0.47 0.17-0.76v-0.45c0-0.29-0.06-0.55-0.17-0.77s-0.27-0.39-0.48-0.51-0.46-0.18-0.74-0.18h-2.24v-0.79h2.19c0.47 0 0.88 0.09 1.22 0.26s0.61 0.43 0.8 0.76 0.28 0.72 0.28 1.17v0.5c0 0.45-0.09 0.85-0.28 1.18s-0.45 0.59-0.8 0.77-0.75 0.27-1.22 0.27h-2.19v-0.77zm2.24 0.52 0.77-0.27 1.77 4.14h-1l-1.54-3.87z"/>
			<path class="st2" d="m144.24 80.46c-0.38-0.21-0.67-0.51-0.87-0.9s-0.3-0.87-0.3-1.43v-3.41c0-0.56 0.1-1.04 0.3-1.43s0.49-0.7 0.87-0.9 0.84-0.31 1.38-0.31 1 0.1 1.38 0.31 0.67 0.51 0.87 0.9 0.3 0.87 0.3 1.43v3.41c0 0.56-0.1 1.04-0.3 1.43s-0.49 0.7-0.87 0.9-0.84 0.31-1.38 0.31-1-0.11-1.38-0.31zm2.3-0.71c0.26-0.14 0.45-0.34 0.58-0.61s0.2-0.59 0.2-0.97v-3.49c0-0.38-0.07-0.7-0.2-0.97s-0.33-0.47-0.58-0.61-0.56-0.21-0.92-0.21-0.67 0.07-0.92 0.21-0.45 0.34-0.59 0.61-0.2 0.59-0.2 0.97v3.49c0 0.38 0.07 0.7 0.2 0.97s0.33 0.47 0.59 0.61 0.56 0.21 0.92 0.21 0.66-0.07 0.92-0.21z"/>
			<path class="st2" d="m151.33 80.77s-0.17-0.06-0.52-0.18-0.64-0.31-0.88-0.57-0.41-0.59-0.51-1l0.8-0.3c0.12 0.44 0.33 0.76 0.64 0.96s0.69 0.3 1.14 0.3c0.57 0 1-0.12 1.3-0.37s0.45-0.6 0.45-1.07v-0.25c0-0.3-0.07-0.55-0.22-0.74s-0.34-0.35-0.57-0.46-0.53-0.22-0.9-0.35c-0.01 0-0.02-0.01-0.03-0.01s-0.02-0.01-0.03-0.01l-0.16-0.04c-0.48-0.15-0.87-0.3-1.17-0.44s-0.55-0.35-0.75-0.62-0.3-0.64-0.3-1.1v-0.22c0-0.48 0.1-0.89 0.29-1.22s0.48-0.58 0.86-0.75 0.84-0.26 1.39-0.26c0.43 0 0.8 0.06 1.1 0.18s0.55 0.3 0.75 0.54 0.35 0.56 0.47 0.95l-0.79 0.28c-0.13-0.41-0.32-0.7-0.56-0.89s-0.57-0.28-0.96-0.28c-0.55 0-0.98 0.12-1.27 0.36s-0.44 0.59-0.44 1.05v0.21c0 0.3 0.08 0.54 0.25 0.73s0.37 0.33 0.62 0.44 0.58 0.22 1 0.35c0.02 0 0.04 0.01 0.05 0.02s0.03 0.01 0.04 0.02c0.02 0 0.04 0.01 0.06 0.02s0.03 0.01 0.05 0.02c0.43 0.13 0.78 0.28 1.07 0.43s0.53 0.38 0.72 0.66 0.29 0.65 0.29 1.1v0.28c0 0.48-0.1 0.89-0.3 1.23s-0.49 0.58-0.88 0.75-0.86 0.25-1.42 0.25h-0.68z"/>
			<path class="st2" d="m155.13 72.16h5.07v0.79h-5.07v-0.79zm2.11 0.52h0.85v8h-0.85v-8z"/>
			<path class="st2" d="m163.14 77.15v3.53h-0.85v-3.53l-2.3-4.99h0.89l1.83 4.11 1.8-4.11h0.89l-2.26 4.99z"/>
		
	
	<path class="st3" d="m189.09 124.07 15.46-20.25-15.33-20.25 6.26-6.26c-1.57 2.11-3.13 4.22-4.7 6.34 6.21 6.7 12.42 13.41 18.63 20.11l-20.32 20.31z"/>
	<path class="st3" d="m185.62 121.81-8.01-17.01h4.97l2.83-1.95v-10.85l-2.83-1.75h-12.28v31.56h1.88v-17.01h3.38l8.03 17.03 2.03-0.02zm-13.39-29.8h9.68l1.52 0.92v8.89l-1.44 1.03h-9.77v-10.84z"/>
	<polygon class="st3" points="166.42 92.01 166.42 90.26 151.28 90.26 151.28 105.16 151.28 106.91 151.28 121.81 166.42 121.81 166.42 120.06 153.04 120.06 153.04 106.91 163.16 106.91 163.16 105.16 153.04 105.16 153.04 92.01"/>
	<path class="st3" d="m143 90.26h-11.96v31.56h11.96l4.46-2.98v-25.8l-4.46-2.78zm2.72 27.46c-1.09 0.78-2.18 1.55-3.27 2.33h-9.5v-28.03h9.5c1.09 0.64 2.18 1.28 3.28 1.91-0.01 7.94-0.01 15.86-0.01 23.79z"/>
	<path class="st3" d="m110.97 90.26v31.56h16.43v-31.56h-16.43zm14.53 29.8h-12.62v-28.05h12.62v28.05z"/>
	<polygon class="st3" points="106.5 83.56 86.32 103.75 106.63 124.07 91.17 103.81"/>


</svg>
