<?xml version="1.0" encoding="UTF-8"?>
<svg width="32" height="32" version="1.1" viewBox="0 0 8.4667 8.4667" xmlns="http://www.w3.org/2000/svg">
 <g transform="matrix(.9949 0 0 1.0051 .1252 2.0245)" fill="#353330" aria-label="Connects">
  <path d="m1.2006 0.783q-0.1069 0.19004-0.1069 0.35237 0 0.11561 0.052262 0.1655 0.053054 0.049887 0.17579 0.049887h0.44027q0.10928 0 0.10928 0.074434 0 0.053846-0.038801 0.083936-0.038009 0.030882-0.10769 0.030882h-0.45927q-0.11482 0-0.18371-0.031674-0.095814-0.044344-0.15045-0.13699-0.054638-0.091855-0.054638-0.20984 0-0.15837 0.096606-0.3785h-0.064932q-0.088687 0-0.088687-0.076018 0-0.047511 0.036425-0.079977 0.036425-0.033258 0.088687-0.033258h0.1362q0.071267-0.11878 0.19163-0.22884 0.15362-0.13857 0.33179-0.13857 0.11719 0 0.194 0.072058 0.076809 0.072058 0.076809 0.18371 0 0.15916-0.14808 0.24389-0.10056 0.057013-0.31991 0.057013zm0.11799-0.18925h0.15362q0.19717 0 0.19717-0.10532 0-0.033258-0.026131-0.053846-0.025339-0.02138-0.064932-0.02138-0.060972 0-0.13145 0.049095t-0.12828 0.13145z"/>
  <path d="m2.4626 0.53597q0.11482 0 0.18846 0.07285 0.074434 0.07285 0.074434 0.18529 0 0.084728-0.038801 0.16866-0.038801 0.083144-0.10056 0.13303-0.041176 0.032466-0.08552 0.045135-0.043552 0.011878-0.12274 0.011878-0.12907 0-0.17421-0.030882-0.10611-0.07285-0.10611-0.21538 0-0.15045 0.10848-0.26052t0.25656-0.11007zm-0.019004 0.16866q-0.058597 0-0.1069 0.057805t-0.048303 0.12749q0 0.091855 0.10294 0.091855 0.060181 0 0.092646-0.037217 0.053846-0.060972 0.053846-0.13937 0-0.045135-0.026131-0.07285t-0.068099-0.027715z"/>
  <path d="m3.419 0.79168h0.095022c0.067043 0 0.1255 0.023492 0.1255 0.070475 0 0.032202-0.017072 0.074758-0.040827 0.092706-0.023755 0.017949-0.051291 0.00944-0.092995 0.00944h-0.19043c-0.032202 0-0.059389-0.00977-0.081561-0.029299-0.021644-0.019532-0.032466-0.044079-0.032466-0.073642 0-0.017949 0.00739-0.044872 0.022172-0.080769l0.069683-0.17262c0.00739-0.017949 0.01135-0.032466 0.011878-0.043552 5.279e-4 -0.01267-0.00475-0.023492-0.015837-0.032466-0.010558-0.008974-0.024283-0.013462-0.041176-0.013462-0.054374 0-0.09819 0.040912-0.13145 0.12274l-0.11733 0.28825c-0.027979 0.069683-0.069683 0.10452-0.12511 0.10452-0.0227 0-0.043007-0.00275-0.058844-0.016475s-0.023756-0.028561-0.023756-0.048621c0-0.014781 0.00422-0.032466 0.01267-0.053054l0.00871-0.02138 0.18489-0.45912c0.020588-0.051206 0.055693-0.076809 0.10532-0.076809 0.040649 0 0.069683 0.017949 0.087103 0.053846 0.056485-0.043288 0.11033-0.064932 0.16154-0.064932 0.049623 0 0.090535 0.014253 0.12274 0.04276 0.032202 0.028507 0.048303 0.064668 0.048303 0.10848 0 0.024283-0.00581 0.050942-0.017421 0.079977z"/>
  <path d="m4.1258 1.0268h0.095022c0.067043 0 0.10056 0.023492 0.10056 0.070475 0 0.032202-0.011878 0.057277-0.035633 0.075226s-0.056485 0.026923-0.098189 0.026923h-0.1655c-0.032202 0-0.059389-0.00977-0.081561-0.029299-0.021644-0.019532-0.032466-0.044079-0.032466-0.073642 0-0.017949 0.00739-0.044872 0.022172-0.080769l0.069683-0.17262c0.00739-0.017949 0.01135-0.032466 0.011878-0.043552 5.279e-4 -0.01267-0.00475-0.023492-0.015837-0.032466-0.010558-0.008974-0.024283-0.013462-0.041176-0.013462-0.054374 0-0.09819 0.040912-0.13145 0.12274l-0.033204 0.087127c-0.027979 0.069683-0.069683 0.10452-0.12511 0.10452-0.0227 0-0.041968-0.00686-0.057805-0.020588-0.015837-0.013725-0.023756-0.030618-0.023756-0.050678 0-0.014781 0.00422-0.032466 0.01267-0.053054l0.00871-0.02138 0.09972-0.25183c0.020588-0.051206 0.055693-0.076809 0.10532-0.076809 0.040649 0 0.069683 0.017949 0.087103 0.053846 0.056485-0.043288 0.11033-0.064932 0.16154-0.064932 0.049623 0 0.090535 0.014253 0.12274 0.04276 0.032202 0.028507 0.048303 0.064668 0.048303 0.10848 0 0.024283-0.00581 0.050942-0.017421 0.079977z"/>
  <path d="m4.5537 0.96744q0 0.059389 0.089479 0.059389h0.23518q0.099773 0 0.099773 0.070475 0 0.048303-0.035633 0.075226-0.034841 0.026923-0.098189 0.026923h-0.22409q-0.12511 0-0.19084-0.061764-0.064932-0.061764-0.064932-0.18054 0-0.15283 0.10294-0.26369 0.10373-0.11086 0.24627-0.11086 0.10373 0 0.16629 0.054638 0.063348 0.053846 0.063348 0.14253 0 0.1069-0.087103 0.15837-0.048303 0.029298-0.14412 0.029298zm0.038009-0.14412h0.087103q0.084728 0 0.082352-0.037217-0.00238-0.041968-0.054638-0.041968-0.07285 0-0.11482 0.079185z"/>
  <path d="m5.4125 1.0595h-0.22964q-0.098981 0-0.16154-0.069683-0.061764-0.069683-0.061764-0.18054 0-0.14808 0.10215-0.25735 0.10215-0.10928 0.23993-0.10928 0.093438 0 0.15204 0.052262 0.058597 0.052262 0.058597 0.1362 0 0.058597-0.029299 0.096606-0.029298 0.037217-0.075226 0.037217-0.07285 0-0.07285-0.068099 0-0.010294 0-0.017421 7.918e-4 -0.00871 7.918e-4 -0.016629 0-0.05543-0.054638-0.05543-0.05147 0-0.09423 0.054638-0.041968 0.054638-0.041968 0.12194 0 0.056221 0.03405 0.079977 0.034841 0.022964 0.11719 0.022964h0.14966q0.10056 0 0.10056 0.070475 0 0.047511-0.036425 0.075226-0.035633 0.026923-0.097398 0.026923z"/>
  <path d="m6.0254 0.30217h0.024547q0.10056 0 0.10056 0.070475 0 0.048303-0.035633 0.075226t-0.098189 0.026923h-0.057805l-0.10611 0.26052h0.088687q0.10056 0 0.10056 0.070475 0 0.048303-0.035633 0.075226-0.034841 0.026923-0.098189 0.026923h-0.14174q-0.060181 0-0.095814-0.027715-0.034841-0.027715-0.034841-0.075226 0-0.029298 0.014253-0.064932l0.015045-0.034841 0.093438-0.23043h-0.011878q-0.088687 0-0.088687-0.068891 0-0.049095 0.034841-0.076018 0.035633-0.027715 0.098981-0.027715h0.036425l0.041968-0.10373 0.00871-0.02138q0.037217-0.087895 0.11719-0.087895 0.032466 0 0.055429 0.022172 0.023756 0.02138 0.023756 0.052262 0 0.03009-0.020588 0.076018z"/>
  <path d="m6.428 0.69909-0.015045 0.036425q-0.034841 0.078393-0.098981 0.078393-0.032466 0-0.058597-0.022172-0.025339-0.022964-0.025339-0.052262 0-0.027715 0.022964-0.073642l0.10532-0.2138q0.038801-0.076809 0.096606-0.076809 0.030882 0 0.053054 0.020588 0.022172 0.019796 0.022172 0.047511 0 0.007127-0.00475 0.030882-0.00317 0.017421-0.00317 0.030882 0 0.049886 0.037217 0.10215l0.045135 0.062556q0.068891 0.095814 0.068891 0.18529 0 0.099773-0.074434 0.16708-0.074434 0.066515-0.18529 0.066515h-0.1655q-0.10056 0-0.10056-0.069683 0-0.048303 0.035633-0.075226 0.035633-0.027715 0.098189-0.027715h0.091855q0.11007 0 0.11007-0.079977 0-0.029298-0.020588-0.068891z"/>
 </g>
 <g transform="matrix(1.1042 0 0 1.1155 -.49153 1.681)" fill="#353330" stroke-width=".095134" aria-label="Us">
  <path d="m5.5202 3.4373-0.21733 0.53482q-0.055185 0.1349-0.13149 0.1969-0.075624 0.061317-0.18736 0.061317-0.10833 0-0.18259-0.064724-0.07358-0.065405-0.07358-0.16011 0-0.070174 0.044285-0.17918l0.072899-0.17986q0.041559-0.1022 0.041559-0.1383 0-0.034065-0.028615-0.057229-0.028615-0.023846-0.069493-0.023846-0.066767 0-0.12195 0.059273-0.055185 0.058592-0.055185 0.12945 0 0.042241 0.019076 0.066086t0.066767 0.042241q0.050416 0.019758 0.050416 0.064042 0 0.038153-0.029296 0.064042-0.029296 0.025208-0.072899 0.025208-0.086525 0-0.14784-0.071537-0.060636-0.072218-0.060636-0.17441 0-0.14852 0.11105-0.25958 0.11173-0.11105 0.26094-0.11105 0.1131 0 0.18736 0.066767 0.074943 0.066086 0.074943 0.16692 0 0.064042-0.036109 0.15193l-0.10356 0.25549q-0.022483 0.055185-0.022483 0.087888 0 0.034065 0.022483 0.055867 0.023164 0.02112 0.059954 0.02112 0.04701 0 0.077668-0.032021 0.03134-0.032021 0.064723-0.11514l0.22415-0.55117q0.023846-0.059954 0.049054-0.076987t0.087888-0.017033h0.14716q0.094019 0 0.094019 0.064042 0 0.047691-0.032702 0.07358-0.032702 0.025208-0.092657 0.025208z"/>
  <path d="m5.9871 3.498-0.012945 0.03134q-0.029977 0.067449-0.085163 0.067449-0.027933 0-0.050416-0.019076-0.021802-0.019758-0.021802-0.044966 0-0.023845 0.019758-0.063361l0.090613-0.18395q0.033384-0.066086 0.083119-0.066086 0.026571 0 0.045647 0.017714 0.019076 0.017033 0.019076 0.040878 0 0.00613-0.00409 0.026571-0.00273 0.014989-0.00273 0.026571 0 0.042922 0.032021 0.087888l0.038834 0.053823q0.059273 0.082437 0.059273 0.15942 0 0.085844-0.064042 0.14375-0.064042 0.057229-0.15942 0.057229h-0.14238q-0.086525 0-0.086525-0.059954 0-0.041559 0.030659-0.064723 0.030659-0.023846 0.084481-0.023846h0.079031q0.094701 0 0.094701-0.068811 0-0.025208-0.017714-0.059273z"/>
 </g>
 <g fill="#ff3330" stroke="#353330">
  <g transform="translate(.1252 2.0245)" stroke-width=".026458" aria-label="俳句">
   <path d="m3.4313 2.4557c0 0.31419-0.16536 0.5457-0.49609 0.69453l-0.082682-0.14883c0.24253-0.11024 0.37758-0.25907 0.40514-0.44648-0.13901 0.040223-0.27894 0.078328-0.4178 0.11768l-0.045225-0.17555 0.47129-0.099219v-0.19017h-0.34727v-0.1571h0.34727v-0.27285h-0.38861v-0.1571h0.38861v-0.29869h0.1571c0.00321 0.12424 0.00827 0.37558 0.00827 0.56741zm-1.141-0.29766c0.16312-0.18649 0.3545-0.86196 0.3545-0.86196l0.19637 0.00103c-0.033936 0.12526-0.095995 0.35812-0.14159 0.50953 3e-3 0.1912 0.020671 0.70694 0.020671 0.70694v0.63666h-0.16536l-0.013155-1.0832c-0.049609 0.071658-0.094332 0.19026-0.16048 0.2564 0 0-0.25407 0.021129-0.09095-0.16536zm1.8686-0.38034h-0.42168v0.27285h0.37207v0.1571h-0.37207v0.28939h0.47129v0.1571h-0.47129v0.48783h-0.16536v-1.8769l0.15856 0.00146c0.00707 0.11797 0.00593 0.236 0.00681 0.35407h0.42168z"/>
   <path d="m5.6472 2.9187h0.19017c0.07717 0 0.12678-0.044097 0.14883-0.13229 0.033073-0.1378 0.060633-0.49058 0.082682-1.0583h-1.1079c-0.1378 0.20395-0.28663 0.35553-0.44648 0.45475l-0.082682-0.1819c0.24805-0.15985 0.45958-0.38413 0.58084-0.73691 0.041389 0.039845 0.087228 0.051361 0.13229 0.056844-0.019399 0.082121-0.061937 0.15355-0.09302 0.22531h1.2072c-0.033073 0.72209-0.071658 1.1713-0.11576 1.3477-0.033073 0.1378-0.12127 0.20671-0.26458 0.20671h-0.23151zm-0.66146-0.79375v0.39688h0.47956v-0.39688zm0 0.55397v0.14056h-0.16536v-0.85163h0.81029v0.76895h-0.16536v-0.057878z"/>
  </g>
  <g stroke-width=".026458">
   <g transform="translate(.1252 2.0245)" aria-label="俳句">
    <path d="m3.486 2.4557c0 0.31419-0.16536 0.5457-0.49609 0.69453l-0.082682-0.14883c0.24253-0.11024 0.37758-0.25907 0.40514-0.44648-0.13901 0.040223-0.27894 0.078328-0.4178 0.11768l-0.045225-0.17555 0.47129-0.099219v-0.19017h-0.34727v-0.1571h0.34727v-0.27285h-0.38861v-0.1571h0.38861v-0.29869h0.1571c0.00321 0.12424 0.00827 0.37558 0.00827 0.56741zm-1.141-0.29766c0.16312-0.18649 0.3545-0.86196 0.3545-0.86196l0.19637 0.00103c-0.033936 0.12526-0.095995 0.35812-0.14159 0.50953 3e-3 0.1912 0.020671 0.70694 0.020671 0.70694v0.63666h-0.16536l-0.013155-1.0832c-0.049609 0.071658-0.094332 0.19026-0.16048 0.2564 0 0-0.25407 0.021129-0.09095-0.16536zm1.8686-0.38034h-0.42168v0.27285h0.37207v0.1571h-0.37207v0.28939h0.47129v0.1571h-0.47129v0.48783h-0.16536v-1.8769l0.15856 0.00146c0.00707 0.11797 0.00593 0.236 0.00681 0.35407h0.42168z"/>
    <path d="m5.7058 2.9187h0.19017c0.07717 0 0.12678-0.044097 0.14883-0.13229 0.033073-0.1378 0.060633-0.49058 0.082682-1.0583h-1.1079c-0.1378 0.20395-0.28663 0.35553-0.44648 0.45475l-0.082682-0.1819c0.24805-0.15985 0.45958-0.38413 0.58084-0.73691 0.041389 0.039845 0.087228 0.051361 0.13229 0.056844-0.019399 0.082121-0.061937 0.15355-0.09302 0.22531h1.2072c-0.033073 0.72209-0.071658 1.1713-0.11576 1.3477-0.033073 0.1378-0.12127 0.20671-0.26458 0.20671h-0.23151zm-0.66146-0.79375v0.39688h0.47956v-0.39688zm0 0.55397v0.14056h-0.16536v-0.85163h0.81029v0.76895h-0.16536v-0.057878z"/>
   </g>
   <g transform="translate(.1252 2.0245)" aria-label="俳句">
    <path d="m3.4313 2.4557c0 0.31419-0.16536 0.5457-0.49609 0.69453l-0.082682-0.14883c0.24253-0.11024 0.37758-0.25907 0.40514-0.44648-0.13901 0.040223-0.27894 0.078328-0.4178 0.11768l-0.045225-0.17555 0.47129-0.099219v-0.19017h-0.34727v-0.1571h0.34727v-0.27285h-0.38861v-0.1571h0.38861v-0.29869h0.1571c0.00321 0.12424 0.00827 0.37558 0.00827 0.56741zm-1.141-0.29766c0.16312-0.18649 0.3545-0.86196 0.3545-0.86196l0.19637 0.00103c-0.033936 0.12526-0.095995 0.35812-0.14159 0.50953 3e-3 0.1912 0.020671 0.70694 0.020671 0.70694v0.63666h-0.16536l-0.013155-1.0832c-0.049609 0.071658-0.094332 0.19026-0.16048 0.2564 0 0-0.25407 0.021129-0.09095-0.16536zm1.8686-0.38034h-0.42168v0.27285h0.37207v0.1571h-0.37207v0.28939h0.47129v0.1571h-0.47129v0.48783h-0.16536v-1.8769l0.15856 0.00146c0.00707 0.11797 0.00593 0.236 0.00681 0.35407h0.42168z"/>
    <path d="m5.6472 2.9187h0.19017c0.07717 0 0.12678-0.044097 0.14883-0.13229 0.033073-0.1378 0.060633-0.49058 0.082682-1.0583h-1.1079c-0.1378 0.20395-0.28663 0.35553-0.44648 0.45475l-0.082682-0.1819c0.24805-0.15985 0.45958-0.38413 0.58084-0.73691 0.041389 0.039845 0.087228 0.051361 0.13229 0.056844-0.019399 0.082121-0.061937 0.15355-0.09302 0.22531h1.2072c-0.033073 0.72209-0.071658 1.1713-0.11576 1.3477-0.033073 0.1378-0.12127 0.20671-0.26458 0.20671h-0.23151zm-0.66146-0.79375v0.39688h0.47956v-0.39688zm0 0.55397v0.14056h-0.16536v-0.85163h0.81029v0.76895h-0.16536v-0.057878z"/>
   </g>
   <g transform="translate(.1252 2.0245)" aria-label="俳句">
    <path d="m3.361 2.5475c0 0.31419-0.16536 0.5457-0.49609 0.69453l-0.082682-0.14883c0.24253-0.11024 0.37758-0.25907 0.40514-0.44648-0.13901 0.040223-0.27894 0.078328-0.4178 0.11768l-0.045225-0.17555 0.47129-0.099219v-0.19017h-0.34727v-0.1571h0.34727v-0.27285h-0.38861v-0.1571h0.38861v-0.29869h0.1571c0.00321 0.12424 0.00827 0.37558 0.00827 0.56741zm-1.141-0.29766c0.16312-0.18649 0.3545-0.86196 0.3545-0.86196l0.19637 0.00103c-0.033936 0.12526-0.095995 0.35812-0.14159 0.50953 3e-3 0.1912 0.020671 0.70694 0.020671 0.70694v0.63666h-0.16536l-0.013155-1.0832c-0.049609 0.071658-0.094332 0.19026-0.16048 0.2564 0 0-0.25407 0.021129-0.09095-0.16536zm1.8686-0.38034h-0.42168v0.27285h0.37207v0.1571h-0.37207v0.28939h0.47129v0.1571h-0.47129v0.48783h-0.16536v-1.8769l0.15856 0.00146c0.00707 0.11797 0.00593 0.236 0.00681 0.35407h0.42168z"/>
    <path d="m5.4753 3.0281h0.19017c0.07717 0 0.12678-0.044097 0.14883-0.13229 0.033073-0.1378 0.060633-0.49058 0.082682-1.0583h-1.1079c-0.1378 0.20395-0.28663 0.35553-0.44648 0.45475l-0.082682-0.1819c0.24805-0.15985 0.45958-0.38413 0.58084-0.73691 0.041389 0.039845 0.087228 0.051361 0.13229 0.056844-0.019399 0.082121-0.061937 0.15355-0.09302 0.22531h1.2072c-0.033073 0.72209-0.071658 1.1713-0.11576 1.3477-0.033073 0.1378-0.12127 0.20671-0.26458 0.20671h-0.23151zm-0.66146-0.79375v0.39688h0.47956v-0.39688zm0 0.55397v0.14056h-0.16536v-0.85163h0.81029v0.76895h-0.16536v-0.057878z"/>
   </g>
  </g>
 </g>
</svg>
