<?xml version="1.0" encoding="UTF-8" standalone="no"?>
<!-- Created with Inkscape (http://www.inkscape.org/) -->

<!-- By Farriven -->

<svg
   xmlns:dc="http://purl.org/dc/elements/1.1/"
   xmlns:cc="http://creativecommons.org/ns#"
   xmlns:rdf="http://www.w3.org/1999/02/22-rdf-syntax-ns#"
   xmlns:svg="http://www.w3.org/2000/svg"
   xmlns="http://www.w3.org/2000/svg"
   xmlns:sodipodi="http://sodipodi.sourceforge.net/DTD/sodipodi-0.dtd"
   xmlns:inkscape="http://www.inkscape.org/namespaces/inkscape"
   width="32"
   height="32"
   version="1.1"
   viewBox="0 0 8.4667 8.4667"
   id="svg50"
   sodipodi:docname="error_404_2.svg"
   inkscape:version="0.92.4 (5da689c313, 2019-01-14)">
  <metadata
     id="metadata56">
    <rdf:RDF>
      <cc:Work
         rdf:about="">
        <dc:format>image/svg+xml</dc:format>
        <dc:type
           rdf:resource="http://purl.org/dc/dcmitype/StillImage" />
      </cc:Work>
    </rdf:RDF>
  </metadata>
  <defs
     id="defs54" />
  <sodipodi:namedview
     pagecolor="#ffffff"
     bordercolor="#666666"
     borderopacity="1"
     objecttolerance="10"
     gridtolerance="10"
     guidetolerance="10"
     inkscape:pageopacity="0"
     inkscape:pageshadow="2"
     inkscape:window-width="1920"
     inkscape:window-height="1001"
     id="namedview52"
     showgrid="false"
     inkscape:zoom="14.75"
     inkscape:cx="9.0355785"
     inkscape:cy="13.992154"
     inkscape:window-x="-9"
     inkscape:window-y="-9"
     inkscape:window-maximized="1"
     inkscape:current-layer="svg50" />
  <g
     style="fill:#353330"
     transform="matrix(0.9949,0,0,1.0051,0.40913,2.1321)"
     aria-label="Connects"
     id="g18">
    <path
       inkscape:connector-curvature="0"
       d="M 1.1129,1.2301 Q 1.006,1.42014 1.006,1.58247 q 0,0.11561 0.052262,0.1655 0.053054,0.049887 0.17579,0.049887 h 0.44027 q 0.10928,0 0.10928,0.074434 0,0.053846 -0.038801,0.083936 -0.038009,0.030882 -0.10769,0.030882 h -0.45927 q -0.11482,0 -0.18371,-0.031674 Q 0.898317,1.911091 0.843681,1.818445 0.789043,1.72659 0.789043,1.608605 q 0,-0.15837 0.096606,-0.3785 H 0.820717 q -0.088687,0 -0.088687,-0.076018 0,-0.047511 0.036425,-0.079977 Q 0.80488,1.040852 0.857142,1.040852 h 0.1362 q 0.071267,-0.11878 0.19163,-0.22884 0.15362,-0.13857 0.33179,-0.13857 0.11719,0 0.194,0.072058 0.076809,0.072058 0.076809,0.18371 0,0.15916 -0.14808,0.24389 -0.10056,0.057013 -0.31991,0.057013 z M 1.23089,1.04085 h 0.15362 q 0.19717,0 0.19717,-0.10532 0,-0.033258 -0.026131,-0.053846 -0.025339,-0.02138 -0.064932,-0.02138 -0.060972,0 -0.13145,0.049095 -0.070478,0.049095 -0.12828,0.13145 z"
       id="path2" />
    <path
       inkscape:connector-curvature="0"
       d="m 2.2524,0.5629 q 0.11482,0 0.18846,0.07285 0.074434,0.07285 0.074434,0.18529 0,0.084728 -0.038801,0.16866 -0.038801,0.083144 -0.10056,0.13303 -0.041176,0.032466 -0.08552,0.045135 -0.043552,0.011878 -0.12274,0.011878 -0.12907,0 -0.17421,-0.030882 -0.10611,-0.07285 -0.10611,-0.21538 0,-0.15045 0.10848,-0.26052 0.10848,-0.11007 0.25656,-0.11007 z M 2.233396,0.73156 q -0.058597,0 -0.1069,0.057805 -0.048303,0.057805 -0.048303,0.12749 0,0.091855 0.10294,0.091855 0.060181,0 0.092646,-0.037217 0.053846,-0.060972 0.053846,-0.13937 0,-0.045135 -0.026131,-0.07285 Q 2.275363,0.731558 2.233395,0.731558 Z"
       id="path4" />
    <path
       inkscape:connector-curvature="0"
       d="m 2.6029,0.20273 h 0.095022 c 0.067043,0 0.1255,0.023492 0.1255,0.070475 0,0.032202 -0.017072,0.074758 -0.040827,0.092706 C 2.75884,0.38386 2.731304,0.375351 2.6896,0.375351 H 2.49917 c -0.032202,0 -0.059389,-0.00977 -0.081561,-0.029299 C 2.395965,0.32652 2.385143,0.301973 2.385143,0.27241 c 0,-0.017949 0.00739,-0.044872 0.022172,-0.080769 l 0.069683,-0.17262 c 0.00739,-0.017949 0.01135,-0.032466 0.011878,-0.043552 5.279e-4,-0.01267 -0.00475,-0.023492 -0.015837,-0.032466 -0.010558,-0.008974 -0.024283,-0.013462 -0.041176,-0.013462 -0.054374,0 -0.09819,0.040912 -0.13145,0.12274 l -0.11733,0.28825 c -0.027979,0.069683 -0.069683,0.10452 -0.12511,0.10452 -0.0227,0 -0.043007,-0.00275 -0.058844,-0.016475 C 1.983292,0.414851 1.975373,0.400015 1.975373,0.379955 c 0,-0.014781 0.00422,-0.032466 0.01267,-0.053054 l 0.00871,-0.02138 0.18489,-0.45912 c 0.020588,-0.051206 0.055693,-0.076809 0.10532,-0.076809 0.040649,0 0.069683,0.017949 0.087103,0.053846 0.056485,-0.043288 0.11033,-0.064932 0.16154,-0.064932 0.049623,0 0.090535,0.014253 0.12274,0.04276 0.032202,0.028507 0.048303,0.064668 0.048303,0.10848 0,0.024283 -0.00581,0.050942 -0.017421,0.079977 z"
       id="path6" />
    <path
       inkscape:connector-curvature="0"
       d="m 3.4988,0.55924 h 0.095022 c 0.067043,0 0.10056,0.023492 0.10056,0.070475 0,0.032202 -0.011878,0.057277 -0.035633,0.075226 C 3.634994,0.72289 3.602264,0.731864 3.56056,0.731864 h -0.1655 c -0.032202,0 -0.059389,-0.00977 -0.081561,-0.029299 C 3.291855,0.683033 3.281033,0.658486 3.281033,0.628923 c 0,-0.017949 0.00739,-0.044872 0.022172,-0.080769 L 3.372888,0.375534 C 3.380278,0.357585 3.384238,0.343068 3.384766,0.331982 3.3852939,0.319312 3.380016,0.30849 3.368929,0.299516 3.358371,0.290542 3.344646,0.286054 3.327753,0.286054 c -0.054374,0 -0.09819,0.040912 -0.13145,0.12274 L 3.163099,0.495921 c -0.027979,0.069683 -0.069683,0.10452 -0.12511,0.10452 -0.0227,0 -0.041968,-0.00686 -0.057805,-0.020588 C 2.964347,0.566128 2.956428,0.549235 2.956428,0.529175 c 0,-0.014781 0.00422,-0.032466 0.01267,-0.053054 l 0.00871,-0.02138 0.09972,-0.25183 c 0.020588,-0.051206 0.055693,-0.076809 0.10532,-0.076809 0.040649,0 0.069683,0.017949 0.087103,0.053846 0.056485,-0.043288 0.11033,-0.064932 0.16154,-0.064932 0.049623,0 0.090535,0.014253 0.12274,0.04276 0.032202,0.028507 0.048303,0.064668 0.048303,0.10848 0,0.024283 -0.00581,0.050942 -0.017421,0.079977 z"
       id="path8" />
    <path
       inkscape:connector-curvature="0"
       d="m 4.2297,1.0266 q 0,0.059389 0.089479,0.059389 h 0.23518 q 0.099773,0 0.099773,0.070475 0,0.048303 -0.035633,0.075226 Q 4.583658,1.258613 4.52031,1.258613 H 4.29622 q -0.12511,0 -0.19084,-0.061764 -0.064932,-0.061764 -0.064932,-0.18054 0,-0.15283 0.10294,-0.26369 0.10373,-0.11086 0.24627,-0.11086 0.10373,0 0.16629,0.054638 0.063348,0.053846 0.063348,0.14253 0,0.1069 -0.087103,0.15837 Q 4.48389,1.026595 4.388073,1.026595 Z M 4.267709,0.88248 h 0.087103 q 0.084728,0 0.082352,-0.037217 -0.00238,-0.041968 -0.054638,-0.041968 -0.07285,0 -0.11482,0.079185 z"
       id="path10" />
    <path
       inkscape:connector-curvature="0"
       d="M 4.9549,0.58317 H 4.72526 q -0.098981,0 -0.16154,-0.069683 -0.061764,-0.069683 -0.061764,-0.18054 0,-0.14808 0.10215,-0.25735 0.10215,-0.10928 0.23993,-0.10928 0.093438,0 0.15204,0.052262 0.058597,0.052262 0.058597,0.1362 0,0.058597 -0.029299,0.096606 -0.029298,0.037217 -0.075226,0.037217 -0.07285,0 -0.07285,-0.068099 0,-0.010294 0,-0.017421 7.918e-4,-0.00871 7.918e-4,-0.016629 0,-0.05543 -0.054638,-0.05543 -0.05147,0 -0.09423,0.054638 -0.041968,0.054638 -0.041968,0.12194 0,0.056221 0.03405,0.079977 0.034841,0.022964 0.11719,0.022964 h 0.14966 q 0.10056,0 0.10056,0.070475 0,0.047511 -0.036425,0.075226 -0.035633,0.026923 -0.097398,0.026923 z"
       id="path12" />
    <path
       inkscape:connector-curvature="0"
       d="m 5.8079,-0.26087 h 0.024547 q 0.10056,0 0.10056,0.070475 0,0.048303 -0.035633,0.075226 -0.035633,0.026923 -0.098189,0.026923 H 5.74138 l -0.10611,0.26052 h 0.088687 q 0.10056,0 0.10056,0.070475 0,0.048303 -0.035633,0.075226 -0.034841,0.026923 -0.098189,0.026923 h -0.14174 q -0.060181,0 -0.095814,-0.027715 Q 5.4183,0.289468 5.4183,0.241957 q 0,-0.029298 0.014253,-0.064932 L 5.447598,0.142184 5.541036,-0.088246 H 5.529158 q -0.088687,0 -0.088687,-0.068891 0,-0.049095 0.034841,-0.076018 0.035633,-0.027715 0.098981,-0.027715 h 0.036425 l 0.041968,-0.10373 0.00871,-0.02138 q 0.037217,-0.087895 0.11719,-0.087895 0.032466,0 0.055429,0.022172 0.023756,0.02138 0.023756,0.052262 0,0.03009 -0.020588,0.076018 z"
       id="path14" />
    <path
       inkscape:connector-curvature="0"
       d="M 6.3644,0.39423 6.349355,0.430655 q -0.034841,0.078393 -0.098981,0.078393 -0.032466,0 -0.058597,-0.022172 -0.025339,-0.022964 -0.025339,-0.052262 0,-0.027715 0.022964,-0.073642 l 0.10532,-0.2138 q 0.038801,-0.076809 0.096606,-0.076809 0.030882,0 0.053054,0.020588 0.022172,0.019796 0.022172,0.047511 0,0.007127 -0.00475,0.030882 -0.00317,0.017421 -0.00317,0.030882 0,0.049886 0.037217,0.10215 l 0.045135,0.062556 q 0.068891,0.095814 0.068891,0.18529 0,0.099773 -0.074434,0.16708 -0.074434,0.066515 -0.18529,0.066515 h -0.1655 q -0.10056,0 -0.10056,-0.069683 0,-0.048303 0.035633,-0.075226 Q 6.155359,0.611193 6.217915,0.611193 H 6.30977 q 0.11007,0 0.11007,-0.079977 0,-0.029298 -0.020588,-0.068891 z"
       id="path16" />
  </g>
  <g
     style="fill:#353330;stroke-width:0.095134"
     transform="matrix(1.1042,0,0,1.1155,-0.20761,1.7886)"
     aria-label="Us"
     id="g24">
    <path
       inkscape:connector-curvature="0"
       d="M 5.2979,3.9136 5.08057,4.44842 q -0.055185,0.1349 -0.13149,0.1969 -0.075624,0.061317 -0.18736,0.061317 -0.10833,0 -0.18259,-0.064724 -0.07358,-0.065405 -0.07358,-0.16011 0,-0.070174 0.044285,-0.17918 l 0.072899,-0.17986 q 0.041559,-0.1022 0.041559,-0.1383 0,-0.034065 -0.028615,-0.057229 -0.028615,-0.023846 -0.069493,-0.023846 -0.066767,0 -0.12195,0.059273 -0.055185,0.058592 -0.055185,0.12945 0,0.042241 0.019076,0.066086 0.019076,0.023845 0.066767,0.042241 0.050416,0.019758 0.050416,0.064042 0,0.038153 -0.029296,0.064042 -0.029296,0.025208 -0.072899,0.025208 -0.086525,0 -0.14784,-0.071537 -0.060636,-0.072218 -0.060636,-0.17441 0,-0.14852 0.11105,-0.25958 0.11173,-0.11105 0.26094,-0.11105 0.1131,0 0.18736,0.066767 0.074943,0.066086 0.074943,0.16692 0,0.064042 -0.036109,0.15193 l -0.10356,0.25549 q -0.022483,0.055185 -0.022483,0.087888 0,0.034065 0.022483,0.055867 0.023164,0.02112 0.059954,0.02112 0.04701,0 0.077668,-0.032021 0.03134,-0.032021 0.064723,-0.11514 l 0.22415,-0.55117 Q 5.159603,3.78485 5.184811,3.767817 5.210019,3.750784 5.272699,3.750784 h 0.14716 q 0.094019,0 0.094019,0.064042 0,0.047691 -0.032702,0.07358 -0.032702,0.025208 -0.092657,0.025208 z"
       id="path20" />
    <path
       inkscape:connector-curvature="0"
       d="M 6.1864,3.5289 6.173455,3.56024 q -0.029977,0.067449 -0.085163,0.067449 -0.027933,0 -0.050416,-0.019076 -0.021802,-0.019758 -0.021802,-0.044966 0,-0.023845 0.019758,-0.063361 L 6.126445,3.316336 Q 6.159829,3.25025 6.209564,3.25025 q 0.026571,0 0.045647,0.017714 0.019076,0.017033 0.019076,0.040878 0,0.00613 -0.00409,0.026571 -0.00273,0.014989 -0.00273,0.026571 0,0.042922 0.032021,0.087888 l 0.038834,0.053823 q 0.059273,0.082437 0.059273,0.15942 0,0.085844 -0.064042,0.14375 -0.064042,0.057229 -0.15942,0.057229 h -0.14238 q -0.086525,0 -0.086525,-0.059954 0,-0.041559 0.030659,-0.064723 0.030659,-0.023846 0.084481,-0.023846 h 0.079031 q 0.094701,0 0.094701,-0.068811 0,-0.025208 -0.017714,-0.059273 z"
       id="path22" />
  </g>
  <g
     transform="translate(-0.07482848,0.07172416)"
     id="g48">
    <g
       style="fill:#ff3330;stroke:#353330;stroke-width:0.026458"
       transform="translate(0.1252,2.0245)"
       aria-label="俳句"
       id="g46">
      <path
         inkscape:connector-curvature="0"
         d="m 3.5633,2.3703 c 0,0.31419 -0.16536,0.5457 -0.49609,0.69453 L 2.984528,2.916 C 3.227058,2.80576 3.362108,2.65693 3.389668,2.46952 3.250658,2.509743 3.110728,2.547848 2.971868,2.5872 L 2.926643,2.41165 3.397933,2.312431 v -0.19017 h -0.34727 v -0.1571 h 0.34727 v -0.27285 h -0.38861 v -0.1571 h 0.38861 v -0.29869 h 0.1571 c 0.00321,0.12424 0.00827,0.37558 0.00827,0.56741 z M 2.4223,2.07264 C 2.58542,1.88615 2.7768,1.21068 2.7768,1.21068 L 2.97317,1.21171 C 2.939234,1.33697 2.877175,1.56983 2.83158,1.72124 c 0.003,0.1912 0.020671,0.70694 0.020671,0.70694 V 3.06484 H 2.686891 L 2.673736,1.98164 c -0.049609,0.071658 -0.094332,0.19026 -0.16048,0.2564 0,0 -0.25407,0.021129 -0.09095,-0.16536 z M 4.2909,1.6923 H 3.86922 v 0.27285 h 0.37207 v 0.1571 H 3.86922 v 0.28939 h 0.47129 v 0.1571 H 3.86922 V 3.05657 H 3.70386 v -1.8769 l 0.15856,0.00146 c 0.00707,0.11797 0.00593,0.236 0.00681,0.35407 h 0.42168 z"
         id="path26" />
      <path
         inkscape:connector-curvature="0"
         d="m 5.6925,2.7822 h 0.19017 c 0.07717,0 0.12678,-0.044097 0.14883,-0.13229 0.033073,-0.1378 0.060633,-0.49058 0.082682,-1.0583 h -1.1079 c -0.1378,0.20395 -0.28663,0.35553 -0.44648,0.45475 L 4.47712,1.86446 C 4.72517,1.70461 4.9367,1.48033 5.05796,1.12755 5.099349,1.167395 5.145188,1.178911 5.19025,1.184394 5.170851,1.266515 5.128313,1.337944 5.09723,1.409704 h 1.2072 c -0.033073,0.72209 -0.071658,1.1713 -0.11576,1.3477 -0.033073,0.1378 -0.12127,0.20671 -0.26458,0.20671 H 5.69258 Z M 5.03104,1.98845 V 2.38533 H 5.5106 V 1.98845 Z m 0,0.55397 V 2.68298 H 4.86568 V 1.83135 H 5.67597 V 2.6003 H 5.51061 V 2.542422 Z"
         id="path28" />
      <path
         inkscape:connector-curvature="0"
         d="m 3.4323,2.5934 c 0,0.31419 -0.16536,0.5457 -0.49609,0.69453 L 2.853528,3.1391 C 3.096058,3.02886 3.231108,2.88003 3.258668,2.69262 3.119658,2.732843 2.979728,2.770948 2.840868,2.8103 L 2.795643,2.63475 3.266933,2.535531 v -0.19017 h -0.34727 v -0.1571 h 0.34727 v -0.27285 h -0.38861 v -0.1571 h 0.38861 v -0.29869 h 0.1571 c 0.00321,0.12424 0.00827,0.37558 0.00827,0.56741 z M 2.2913,2.29574 C 2.45442,2.10925 2.6458,1.43378 2.6458,1.43378 L 2.84217,1.43481 C 2.808234,1.56007 2.746175,1.79293 2.70058,1.94434 c 0.003,0.1912 0.020671,0.70694 0.020671,0.70694 V 3.28794 H 2.555891 L 2.542736,2.20474 C 2.493127,2.276398 2.448404,2.395 2.382256,2.46114 c 0,0 -0.25407,0.021129 -0.09095,-0.16536 z M 4.1599,1.9154 H 3.73822 v 0.27285 h 0.37207 v 0.1571 H 3.73822 v 0.28939 h 0.47129 v 0.1571 H 3.73822 V 3.27967 H 3.57286 v -1.8769 l 0.15856,0.00146 c 0.00707,0.11797 0.00593,0.236 0.00681,0.35407 h 0.42168 z"
         id="path30" />
      <path
         inkscape:connector-curvature="0"
         d="m 5.7613,2.9464 h 0.19017 c 0.07717,0 0.12678,-0.044097 0.14883,-0.13229 0.033073,-0.1378 0.060633,-0.49058 0.082682,-1.0583 h -1.1079 c -0.1378,0.20395 -0.28663,0.35553 -0.44648,0.45475 L 4.54592,2.02866 C 4.79397,1.86881 5.0055,1.64453 5.12676,1.29175 5.168149,1.331595 5.213988,1.343111 5.25905,1.348594 5.239651,1.430715 5.197113,1.502144 5.16603,1.573904 h 1.2072 c -0.033073,0.72209 -0.071658,1.1713 -0.11576,1.3477 -0.033073,0.1378 -0.12127,0.20671 -0.26458,0.20671 H 5.76138 Z M 5.09984,2.15265 V 2.54953 H 5.5794 V 2.15265 Z m 0,0.55397 V 2.84718 H 4.93448 V 1.99555 H 5.74477 V 2.7645 H 5.57941 V 2.706622 Z"
         id="path32" />
      <path
         inkscape:connector-curvature="0"
         d="m 5.6173,2.9775 h 0.19017 c 0.07717,0 0.12678,-0.044097 0.14883,-0.13229 0.033073,-0.1378 0.060633,-0.49058 0.082682,-1.0583 h -1.1079 c -0.1378,0.20395 -0.28663,0.35553 -0.44648,0.45475 L 4.40192,2.05976 C 4.64997,1.89991 4.8615,1.67563 4.98276,1.32285 5.024149,1.362695 5.069988,1.374211 5.11505,1.379694 5.095651,1.461815 5.053113,1.533244 5.02203,1.605004 h 1.2072 c -0.033073,0.72209 -0.071658,1.1713 -0.11576,1.3477 -0.033073,0.1378 -0.12127,0.20671 -0.26458,0.20671 H 5.61738 Z M 4.95584,2.18375 V 2.58063 H 5.4354 V 2.18375 Z m 0,0.55397 V 2.87828 H 4.79048 V 2.02665 H 5.60077 V 2.7956 H 5.43541 V 2.737722 Z"
         id="path34" />
      <path
         inkscape:connector-curvature="0"
         d="m 5.6217,2.9571 h 0.19017 c 0.07717,0 0.12678,-0.044097 0.14883,-0.13229 0.033073,-0.1378 0.060633,-0.49058 0.082682,-1.0583 h -1.1079 c -0.1378,0.20395 -0.28663,0.35553 -0.44648,0.45475 L 4.40632,2.03936 C 4.65437,1.87951 4.8659,1.65523 4.98716,1.30245 5.028549,1.342295 5.074388,1.353811 5.11945,1.359294 5.100051,1.441415 5.057513,1.512844 5.02643,1.584604 h 1.2072 c -0.033073,0.72209 -0.071658,1.1713 -0.11576,1.3477 -0.033073,0.1378 -0.12127,0.20671 -0.26458,0.20671 H 5.62178 Z M 4.96024,2.16335 V 2.56023 H 5.4398 V 2.16335 Z m 0,0.55397 V 2.85788 H 4.79488 V 2.00625 H 5.60517 V 2.7752 H 5.43981 V 2.717322 Z"
         id="path36" />
      <path
         inkscape:connector-curvature="0"
         d="m 5.5571,2.8675 h 0.19017 c 0.07717,0 0.12678,-0.044097 0.14883,-0.13229 0.033073,-0.1378 0.060633,-0.49058 0.082682,-1.0583 h -1.1079 c -0.1378,0.20395 -0.28663,0.35553 -0.44648,0.45475 L 4.34172,1.94976 C 4.58977,1.78991 4.8013,1.56563 4.92256,1.21285 4.963949,1.252695 5.009788,1.264211 5.05485,1.269694 5.035451,1.351815 4.992913,1.423244 4.96183,1.495004 h 1.2072 c -0.033073,0.72209 -0.071658,1.1713 -0.11576,1.3477 -0.033073,0.1378 -0.12127,0.20671 -0.26458,0.20671 H 5.55718 Z M 4.89564,2.07375 V 2.47063 H 5.3752 V 2.07375 Z m 0,0.55397 V 2.76828 H 4.73028 V 1.91665 H 5.54057 V 2.6856 H 5.37521 V 2.627722 Z"
         id="path38" />
      <path
         inkscape:connector-curvature="0"
         d="m 5.6315,2.9788 h 0.19017 c 0.07717,0 0.12678,-0.044097 0.14883,-0.13229 0.033073,-0.1378 0.060633,-0.49058 0.082682,-1.0583 h -1.1079 c -0.1378,0.20395 -0.28663,0.35553 -0.44648,0.45475 L 4.41612,2.06106 C 4.66417,1.90121 4.8757,1.67693 4.99696,1.32415 5.038349,1.363995 5.084188,1.375511 5.12925,1.380994 5.109851,1.463115 5.067313,1.534544 5.03623,1.606304 h 1.2072 c -0.033073,0.72209 -0.071658,1.1713 -0.11576,1.3477 -0.033073,0.1378 -0.12127,0.20671 -0.26458,0.20671 H 5.63158 Z M 4.97004,2.18505 V 2.58193 H 5.4496 V 2.18505 Z m 0,0.55397 V 2.87958 H 4.80468 V 2.02795 H 5.61497 V 2.7969 H 5.44961 V 2.739022 Z"
         id="path40" />
      <path
         inkscape:connector-curvature="0"
         d="m 5.616,2.8154 h 0.19017 c 0.07717,0 0.12678,-0.044097 0.14883,-0.13229 0.033073,-0.1378 0.060633,-0.49058 0.082682,-1.0583 h -1.1079 c -0.1378,0.20395 -0.28663,0.35553 -0.44648,0.45475 L 4.40062,1.89766 C 4.64867,1.73781 4.8602,1.51353 4.98146,1.16075 5.022849,1.200595 5.068688,1.212111 5.11375,1.217594 5.094351,1.299715 5.051813,1.371144 5.02073,1.442904 h 1.2072 c -0.033073,0.72209 -0.071658,1.1713 -0.11576,1.3477 -0.033073,0.1378 -0.12127,0.20671 -0.26458,0.20671 H 5.61608 Z M 4.95454,2.02165 V 2.41853 H 5.4341 V 2.02165 Z m 0,0.55397 V 2.71618 H 4.78918 V 1.86455 H 5.59947 V 2.6335 H 5.43411 V 2.575622 Z"
         id="path42" />
      <path
         inkscape:connector-curvature="0"
         d="m 3.4944,2.4356 c 0,0.31419 -0.16536,0.5457 -0.49609,0.69453 L 2.915628,2.9813 C 3.158158,2.87106 3.293208,2.72223 3.320768,2.53482 3.181758,2.575043 3.041828,2.613148 2.902968,2.6525 L 2.857743,2.47695 3.329033,2.377731 v -0.19017 h -0.34727 v -0.1571 h 0.34727 v -0.27285 h -0.38861 v -0.1571 h 0.38861 v -0.29869 h 0.1571 c 0.00321,0.12424 0.00827,0.37558 0.00827,0.56741 z M 2.3534,2.13794 C 2.51652,1.95145 2.7079,1.27598 2.7079,1.27598 L 2.90427,1.27701 C 2.870334,1.40227 2.808275,1.63513 2.76268,1.78654 c 0.003,0.1912 0.020671,0.70694 0.020671,0.70694 V 3.13014 H 2.617991 L 2.604836,2.04694 c -0.049609,0.071658 -0.094332,0.19026 -0.16048,0.2564 0,0 -0.25407,0.021129 -0.09095,-0.16536 z M 4.222,1.7576 H 3.80032 v 0.27285 h 0.37207 v 0.1571 H 3.80032 v 0.28939 h 0.47129 v 0.1571 H 3.80032 V 3.12187 H 3.63496 v -1.8769 l 0.15856,0.00146 c 0.00707,0.11797 0.00593,0.236 0.00681,0.35407 h 0.42168 z"
         id="path44" />
    </g>
  </g>
</svg>
