<?xml version="1.0" encoding="UTF-8"?>
<!-- Created with Inkscape (http://www.inkscape.org/) -->
<!-- By Farriven -->
<svg width="32" height="32" version="1.1" viewBox="0 0 8.4667 8.4667" xmlns="http://www.w3.org/2000/svg">
 <g fill-opacity="0" stroke="#fff" stroke-width=".39688">
  <circle cx="4.2333" cy="4.2333" r="2.765"/>
  <circle cx="4.2345" cy="4.2321" r="2.0231"/>
 </g>
 <rect transform="rotate(135)" x="-.55699" y="-3.42" width="1.1115" height="1.1115" rx="0" ry=".17718" fill="#fff" stroke="#000" stroke-opacity=".0095847" stroke-width=".62245"/>
 <rect transform="rotate(90)" x="3.6764" y="-1.6656" width="1.1115" height="1.1115" rx="0" ry=".17718" fill="#f9ffff" stroke="#000" stroke-opacity=".0095847" stroke-width=".62245"/>
 <rect transform="rotate(45)" x="5.4324" y="2.5673" width="1.1115" height="1.1115" rx="0" ry=".17718" fill="#fff" stroke="#000" stroke-opacity=".0095847" stroke-width=".62245"/>
 <rect transform="scale(-1)" x="-4.7903" y="-7.9124" width="1.1115" height="1.1115" rx="0" ry=".17718" fill="#fff" stroke="#000" stroke-opacity=".0095847" stroke-width=".62245"/>
 <rect transform="rotate(135)" x="-.55802" y="-9.6654" width="1.1115" height="1.1115" rx="0" ry=".17718" fill="#fff" stroke="#000" stroke-opacity=".0095847" stroke-width=".62245"/>
 <rect transform="rotate(90)" x="3.6753" y="-7.9119" width="1.1115" height="1.1115" rx="0" ry=".17718" fill="#fff" stroke="#000" stroke-opacity=".0095847" stroke-width=".62245"/>
 <rect transform="rotate(45)" x="5.4324" y="-3.6784" width="1.1115" height="1.1115" rx="0" ry=".17718" fill="#fff" stroke="#000" stroke-opacity=".0095847" stroke-width=".62245"/>
 <rect transform="scale(-1)" x="-4.7903" y="-1.6653" width="1.1115" height="1.1115" rx="0" ry=".17718" fill="#fff" stroke="#000" stroke-opacity=".0095847" stroke-width=".62245"/>
</svg>
