<?xml version="1.0" encoding="UTF-8"?>
<!-- Created with Inkscape (http://www.inkscape.org/) -->
<!-- By Farriven -->
<svg width="32" height="32" version="1.1" viewBox="0 0 8.4667 8.4667" xmlns="http://www.w3.org/2000/svg">
 <path d="m6.5261 5.7793c-0.099378 0.1471-0.21254 0.28412-0.33763 0.40921-0.25018 0.25018-0.54809 0.45265-0.87889 0.59256-0.3308 0.13992-0.6945 0.21729-1.0763 0.21729-1.5271 0-2.765-1.2379-2.765-2.765s1.2379-2.765 2.765-2.765c0.38177 0 0.74546 0.077371 1.0763 0.21729 0.3308 0.13992 0.6287 0.34238 0.87889 0.59256 0.12509 0.12509 0.23825 0.26211 0.33763 0.40921" fill-opacity="0" stroke="#fff" stroke-width=".52917"/>
 <path d="m5.2551 4.2321-1.7327 1.0003-1e-7 -1.0003 1e-7 -1.0003 0.86633 0.50017z" fill="#fff" stroke-opacity="0"/>
</svg>
